<svg width="375" height="69" viewBox="0 0 375 69" fill="none" xmlns="http://www.w3.org/2000/svg">
<path d="M1.224 68C0.968 68 0.84 67.84 0.84 67.52L1.032 1.568C1.032 1.312 1.16 1.184 1.416 1.184H13.128C13.384 1.184 13.608 1.312 13.8 1.568L22.536 14.24L31.272 1.568C31.464 1.312 31.688 1.184 31.944 1.184H43.752C44.008 1.184 44.136 1.312 44.136 1.568L44.328 67.52C44.328 67.84 44.2 68 43.944 68H33.096C32.84 68 32.712 67.84 32.712 67.52L32.616 18.56L22.536 33.152L12.552 18.56L12.456 67.52C12.456 67.84 12.328 68 12.072 68H1.224ZM49.1385 67.52L61.0425 1.568C61.1065 1.312 61.2665 1.184 61.5225 1.184H75.4425C75.6985 1.184 75.8585 1.312 75.9225 1.568L87.3465 67.52C87.4105 67.84 87.2825 68 86.9625 68H76.3065C76.0505 68 75.8905 67.84 75.8265 67.52L74.7705 60.512H61.7145L60.6585 67.52C60.5945 67.84 60.4345 68 60.1785 68H49.5225C49.2665 68 49.1385 67.84 49.1385 67.52ZM63.6345 50.24H72.8505L68.9145 23.264L68.3385 19.712L67.9545 23.264L63.6345 50.24ZM98.0805 68C97.8885 68 97.7925 67.872 97.7925 67.616L97.8885 40.352L85.0245 1.568C84.9605 1.312 85.0565 1.184 85.3125 1.184H95.9685C96.2885 1.184 96.4805 1.312 96.5445 1.568L103.649 27.392L110.849 1.568C110.913 1.312 111.073 1.184 111.329 1.184H122.081C122.337 1.184 122.433 1.312 122.369 1.568L109.409 39.968L109.505 67.616C109.505 67.872 109.377 68 109.121 68H98.0805ZM142.129 68.96C138.673 68.96 135.505 68.096 132.625 66.368C129.809 64.576 127.537 62.24 125.809 59.36C124.145 56.416 123.313 53.184 123.313 49.664V45.248C123.313 44.928 123.473 44.768 123.793 44.768H134.545C134.801 44.768 134.929 44.928 134.929 45.248V49.664C134.929 51.776 135.633 53.6 137.041 55.136C138.449 56.608 140.145 57.344 142.129 57.344C144.113 57.344 145.809 56.576 147.217 55.04C148.625 53.504 149.329 51.712 149.329 49.664C149.329 47.296 147.793 45.248 144.721 43.52C143.697 42.944 142.097 42.048 139.921 40.832C137.745 39.616 135.697 38.464 133.777 37.376C130.257 35.328 127.633 32.768 125.905 29.696C124.241 26.56 123.409 23.04 123.409 19.136C123.409 15.552 124.273 12.352 126.001 9.536C127.729 6.656 130.001 4.384 132.817 2.72C135.697 1.056 138.801 0.223997 142.129 0.223997C145.521 0.223997 148.625 1.088 151.441 2.816C154.321 4.48 156.593 6.752 158.257 9.632C159.985 12.448 160.849 15.616 160.849 19.136V27.008C160.849 27.264 160.721 27.392 160.465 27.392H149.713C149.457 27.392 149.329 27.264 149.329 27.008L149.233 19.136C149.233 16.896 148.529 15.072 147.121 13.664C145.713 12.256 144.049 11.552 142.129 11.552C140.145 11.552 138.449 12.32 137.041 13.856C135.633 15.328 134.929 17.088 134.929 19.136C134.929 21.248 135.377 23.008 136.273 24.416C137.169 25.824 138.801 27.168 141.169 28.448C141.489 28.64 142.097 28.992 142.993 29.504C143.953 29.952 144.977 30.496 146.065 31.136C147.153 31.712 148.113 32.224 148.945 32.672C149.841 33.12 150.385 33.408 150.577 33.536C153.777 35.328 156.305 37.536 158.161 40.16C160.017 42.72 160.945 45.888 160.945 49.664C160.945 53.312 160.081 56.608 158.353 59.552C156.689 62.432 154.417 64.736 151.537 66.464C148.721 68.128 145.585 68.96 142.129 68.96ZM185.285 68.96C181.765 68.96 178.565 68.096 175.685 66.368C172.869 64.576 170.629 62.208 168.965 59.264C167.301 56.32 166.469 53.024 166.469 49.376L166.565 19.424C166.565 15.904 167.365 12.704 168.965 9.824C170.629 6.88 172.869 4.544 175.685 2.816C178.565 1.024 181.765 0.127998 185.285 0.127998C188.805 0.127998 191.973 0.991999 194.789 2.72C197.605 4.448 199.845 6.78399 201.509 9.72799C203.173 12.608 204.005 15.84 204.005 19.424V23.84C204.005 24.096 203.877 24.224 203.621 24.224H192.869C192.613 24.224 192.485 24.096 192.485 23.84V19.424C192.485 17.312 191.781 15.488 190.373 13.952C189.029 12.416 187.333 11.648 185.285 11.648C182.981 11.648 181.221 12.448 180.005 14.048C178.789 15.584 178.181 17.376 178.181 19.424V49.376C178.181 51.744 178.853 53.664 180.197 55.136C181.605 56.608 183.301 57.344 185.285 57.344C187.333 57.344 189.029 56.544 190.373 54.944C191.781 53.28 192.485 51.424 192.485 49.376V44.96C192.485 44.704 192.613 44.576 192.869 44.576H203.717C203.973 44.576 204.101 44.704 204.101 44.96V49.376C204.101 53.024 203.237 56.32 201.509 59.264C199.845 62.208 197.605 64.576 194.789 66.368C191.973 68.096 188.805 68.96 185.285 68.96ZM211.505 68C211.249 68 211.121 67.84 211.121 67.52L211.313 1.568C211.313 1.312 211.441 1.184 211.697 1.184H231.089C234.545 1.184 237.713 2.048 240.593 3.776C243.537 5.44 245.873 7.712 247.601 10.592C249.329 13.408 250.193 16.608 250.193 20.192C250.193 22.56 249.841 24.704 249.137 26.624C248.433 28.48 247.601 30.08 246.641 31.424C245.681 32.704 244.817 33.664 244.049 34.304C247.505 38.144 249.233 42.656 249.233 47.84L249.329 67.52C249.329 67.84 249.169 68 248.849 68H238.001C237.745 68 237.617 67.904 237.617 67.712V47.84C237.617 45.536 236.785 43.552 235.121 41.888C233.521 40.16 231.537 39.296 229.169 39.296H222.833L222.737 67.52C222.737 67.84 222.609 68 222.353 68H211.505ZM222.833 27.776H231.089C233.073 27.776 234.833 27.04 236.369 25.568C237.905 24.096 238.673 22.304 238.673 20.192C238.673 18.144 237.905 16.384 236.369 14.912C234.897 13.44 233.137 12.704 231.089 12.704H222.833V27.776ZM257.818 68C257.562 68 257.434 67.84 257.434 67.52L257.53 1.568C257.53 1.312 257.658 1.184 257.914 1.184H288.73C288.986 1.184 289.114 1.344 289.114 1.664V12.416C289.114 12.672 288.986 12.8 288.73 12.8H269.05V27.776H288.73C288.986 27.776 289.114 27.904 289.114 28.16L289.21 39.008C289.21 39.264 289.082 39.392 288.826 39.392H269.05V56.192H288.826C289.082 56.192 289.21 56.352 289.21 56.672V67.616C289.21 67.872 289.082 68 288.826 68H257.818ZM298.13 68C297.874 68 297.746 67.84 297.746 67.52L297.842 1.568C297.842 1.312 297.97 1.184 298.226 1.184H329.042C329.298 1.184 329.426 1.344 329.426 1.664V12.416C329.426 12.672 329.298 12.8 329.042 12.8H309.362V27.776H329.042C329.298 27.776 329.426 27.904 329.426 28.16L329.522 39.008C329.522 39.264 329.394 39.392 329.138 39.392H309.362V56.192H329.138C329.394 56.192 329.522 56.352 329.522 56.672V67.616C329.522 67.872 329.394 68 329.138 68H298.13ZM338.923 68C338.411 68 338.155 67.776 338.155 67.328L338.059 1.952C338.059 1.44 338.315 1.184 338.827 1.184H347.467L363.691 39.008L363.211 1.952C363.211 1.44 363.499 1.184 364.075 1.184H373.579C373.963 1.184 374.155 1.44 374.155 1.952L374.251 67.424C374.251 67.808 374.091 68 373.771 68H365.323L348.715 32.672L349.387 67.232C349.387 67.744 349.099 68 348.523 68H338.923Z" fill="white"/>
</svg>
